<mxfile host="app.diagrams.net" modified="2022-05-25T03:45:12.526Z" agent="5.0 (Windows NT 10.0; Win64; x64) AppleWebKit/537.36 (KHTML, like Gecko) Chrome/101.0.4951.67 Safari/537.36" etag="nAhLfVp2KRavIe8csUaw" version="18.1.2" type="github">
  <diagram id="FhBeIz4DgpYDygh7tZWK" name="Page-1">
    <mxGraphModel dx="1550" dy="835" grid="1" gridSize="10" guides="1" tooltips="1" connect="1" arrows="1" fold="1" page="1" pageScale="1" pageWidth="827" pageHeight="1169" math="0" shadow="0">
      <root>
        <mxCell id="0" />
        <mxCell id="1" parent="0" />
        <mxCell id="43eCuBTWSi4-MtkyAAMu-4" value="" style="edgeStyle=orthogonalEdgeStyle;rounded=0;orthogonalLoop=1;jettySize=auto;html=1;fontSize=15;" parent="1" source="43eCuBTWSi4-MtkyAAMu-1" target="43eCuBTWSi4-MtkyAAMu-2" edge="1">
          <mxGeometry relative="1" as="geometry" />
        </mxCell>
        <mxCell id="43eCuBTWSi4-MtkyAAMu-1" value="&lt;font style=&quot;font-size: 15px;&quot;&gt;点击入场&lt;/font&gt;" style="ellipse;whiteSpace=wrap;html=1;rounded=0;" parent="1" vertex="1">
          <mxGeometry x="370" y="270" width="120" height="80" as="geometry" />
        </mxCell>
        <mxCell id="43eCuBTWSi4-MtkyAAMu-5" value="" style="edgeStyle=orthogonalEdgeStyle;rounded=0;orthogonalLoop=1;jettySize=auto;html=1;fontSize=15;" parent="1" source="43eCuBTWSi4-MtkyAAMu-2" target="43eCuBTWSi4-MtkyAAMu-3" edge="1">
          <mxGeometry relative="1" as="geometry" />
        </mxCell>
        <mxCell id="43eCuBTWSi4-MtkyAAMu-2" value="从接口获取打卡信标" style="rounded=0;whiteSpace=wrap;html=1;fontSize=15;" parent="1" vertex="1">
          <mxGeometry x="370" y="390" width="120" height="60" as="geometry" />
        </mxCell>
        <mxCell id="y6g5GoTqr2yz2Q68kRER-1" value="" style="edgeStyle=orthogonalEdgeStyle;orthogonalLoop=1;jettySize=auto;html=1;rounded=0;" edge="1" parent="1" source="43eCuBTWSi4-MtkyAAMu-3" target="43eCuBTWSi4-MtkyAAMu-8">
          <mxGeometry relative="1" as="geometry" />
        </mxCell>
        <mxCell id="43eCuBTWSi4-MtkyAAMu-3" value="启动蓝牙扫描(10s)" style="rounded=0;whiteSpace=wrap;html=1;fontSize=15;" parent="1" vertex="1">
          <mxGeometry x="355" y="500" width="150" height="50" as="geometry" />
        </mxCell>
        <mxCell id="y6g5GoTqr2yz2Q68kRER-4" value="" style="edgeStyle=orthogonalEdgeStyle;orthogonalLoop=1;jettySize=auto;html=1;rounded=0;" edge="1" parent="1" source="43eCuBTWSi4-MtkyAAMu-8">
          <mxGeometry relative="1" as="geometry">
            <mxPoint x="700" y="655.0999999999999" as="targetPoint" />
          </mxGeometry>
        </mxCell>
        <mxCell id="y6g5GoTqr2yz2Q68kRER-17" value="N" style="edgeLabel;html=1;align=center;verticalAlign=middle;resizable=0;points=[];fontSize=15;" vertex="1" connectable="0" parent="y6g5GoTqr2yz2Q68kRER-4">
          <mxGeometry x="0.1143" y="-1" relative="1" as="geometry">
            <mxPoint as="offset" />
          </mxGeometry>
        </mxCell>
        <mxCell id="y6g5GoTqr2yz2Q68kRER-9" style="edgeStyle=orthogonalEdgeStyle;orthogonalLoop=1;jettySize=auto;html=1;entryX=0.5;entryY=0;entryDx=0;entryDy=0;rounded=0;" edge="1" parent="1" source="43eCuBTWSi4-MtkyAAMu-8" target="y6g5GoTqr2yz2Q68kRER-21">
          <mxGeometry relative="1" as="geometry">
            <mxPoint x="430.0050000000001" y="790" as="targetPoint" />
            <Array as="points" />
          </mxGeometry>
        </mxCell>
        <mxCell id="y6g5GoTqr2yz2Q68kRER-19" value="Y" style="edgeLabel;html=1;align=center;verticalAlign=middle;resizable=0;points=[];fontSize=15;" vertex="1" connectable="0" parent="y6g5GoTqr2yz2Q68kRER-9">
          <mxGeometry x="-0.2587" y="1" relative="1" as="geometry">
            <mxPoint x="-1" y="12" as="offset" />
          </mxGeometry>
        </mxCell>
        <mxCell id="43eCuBTWSi4-MtkyAAMu-8" value="是否扫描到打卡信标？" style="rhombus;whiteSpace=wrap;html=1;fontSize=15;rounded=0;" parent="1" vertex="1">
          <mxGeometry x="302.5" y="610" width="255" height="90" as="geometry" />
        </mxCell>
        <mxCell id="y6g5GoTqr2yz2Q68kRER-13" style="edgeStyle=orthogonalEdgeStyle;orthogonalLoop=1;jettySize=auto;html=1;entryX=0.5;entryY=0;entryDx=0;entryDy=0;fontSize=15;rounded=0;" edge="1" parent="1" source="y6g5GoTqr2yz2Q68kRER-11" target="y6g5GoTqr2yz2Q68kRER-12">
          <mxGeometry relative="1" as="geometry" />
        </mxCell>
        <mxCell id="y6g5GoTqr2yz2Q68kRER-18" value="Y" style="edgeLabel;html=1;align=center;verticalAlign=middle;resizable=0;points=[];fontSize=15;" vertex="1" connectable="0" parent="y6g5GoTqr2yz2Q68kRER-13">
          <mxGeometry x="-0.2933" y="-1" relative="1" as="geometry">
            <mxPoint x="1" y="18" as="offset" />
          </mxGeometry>
        </mxCell>
        <mxCell id="y6g5GoTqr2yz2Q68kRER-15" style="edgeStyle=orthogonalEdgeStyle;orthogonalLoop=1;jettySize=auto;html=1;entryX=1;entryY=0.5;entryDx=0;entryDy=0;fontSize=15;exitX=0.5;exitY=0;exitDx=0;exitDy=0;rounded=0;" edge="1" parent="1" source="y6g5GoTqr2yz2Q68kRER-11" target="43eCuBTWSi4-MtkyAAMu-3">
          <mxGeometry relative="1" as="geometry">
            <mxPoint x="828" y="600" as="sourcePoint" />
            <Array as="points">
              <mxPoint x="828" y="525" />
            </Array>
          </mxGeometry>
        </mxCell>
        <mxCell id="y6g5GoTqr2yz2Q68kRER-16" value="N" style="edgeLabel;html=1;align=center;verticalAlign=middle;resizable=0;points=[];fontSize=15;" vertex="1" connectable="0" parent="y6g5GoTqr2yz2Q68kRER-15">
          <mxGeometry x="0.0587" y="-1" relative="1" as="geometry">
            <mxPoint x="-26" y="1" as="offset" />
          </mxGeometry>
        </mxCell>
        <mxCell id="y6g5GoTqr2yz2Q68kRER-11" value="repeat scan count &amp;gt; 1 ?" style="rhombus;whiteSpace=wrap;html=1;fontSize=15;rounded=0;" vertex="1" parent="1">
          <mxGeometry x="700" y="610" width="255" height="90" as="geometry" />
        </mxCell>
        <mxCell id="y6g5GoTqr2yz2Q68kRER-12" value="入场失败" style="ellipse;whiteSpace=wrap;html=1;fontSize=15;rounded=0;" vertex="1" parent="1">
          <mxGeometry x="767.5" y="835" width="120" height="80" as="geometry" />
        </mxCell>
        <mxCell id="y6g5GoTqr2yz2Q68kRER-23" style="edgeStyle=orthogonalEdgeStyle;orthogonalLoop=1;jettySize=auto;html=1;entryX=0;entryY=0.5;entryDx=0;entryDy=0;fontSize=15;" edge="1" parent="1" source="y6g5GoTqr2yz2Q68kRER-21" target="y6g5GoTqr2yz2Q68kRER-12">
          <mxGeometry relative="1" as="geometry" />
        </mxCell>
        <mxCell id="y6g5GoTqr2yz2Q68kRER-24" value="N" style="edgeLabel;html=1;align=center;verticalAlign=middle;resizable=0;points=[];fontSize=15;" vertex="1" connectable="0" parent="y6g5GoTqr2yz2Q68kRER-23">
          <mxGeometry x="-0.2129" y="1" relative="1" as="geometry">
            <mxPoint as="offset" />
          </mxGeometry>
        </mxCell>
        <mxCell id="y6g5GoTqr2yz2Q68kRER-26" style="edgeStyle=orthogonalEdgeStyle;orthogonalLoop=1;jettySize=auto;html=1;entryX=0.5;entryY=0;entryDx=0;entryDy=0;fontSize=15;" edge="1" parent="1" source="y6g5GoTqr2yz2Q68kRER-21" target="y6g5GoTqr2yz2Q68kRER-25">
          <mxGeometry relative="1" as="geometry" />
        </mxCell>
        <mxCell id="y6g5GoTqr2yz2Q68kRER-27" value="Y" style="edgeLabel;html=1;align=center;verticalAlign=middle;resizable=0;points=[];fontSize=15;" vertex="1" connectable="0" parent="y6g5GoTqr2yz2Q68kRER-26">
          <mxGeometry x="-0.2886" y="4" relative="1" as="geometry">
            <mxPoint x="-4" y="20" as="offset" />
          </mxGeometry>
        </mxCell>
        <mxCell id="y6g5GoTqr2yz2Q68kRER-21" value="&lt;span style=&quot;&quot;&gt;网络上报 nfc 事件，是否上报成功&lt;/span&gt;" style="rhombus;whiteSpace=wrap;html=1;fontSize=15;rounded=0;" vertex="1" parent="1">
          <mxGeometry x="298.13" y="820" width="263.75" height="110" as="geometry" />
        </mxCell>
        <mxCell id="y6g5GoTqr2yz2Q68kRER-25" value="入场成功" style="ellipse;whiteSpace=wrap;html=1;fontSize=15;rounded=0;" vertex="1" parent="1">
          <mxGeometry x="370.01" y="1070" width="120" height="80" as="geometry" />
        </mxCell>
      </root>
    </mxGraphModel>
  </diagram>
</mxfile>
